<svg xmlns="http://www.w3.org/2000/svg" width="500" height="500" viewBox="0 0 500 500"><rect width="100%" height="100%" fill="#DDDDDD"/><path fill="#999999" d="M129.64 198.49h-19.26v12.84h16.26v6.45h-16.26v17.67h-8.1v-43.38h27.36v6.42Zm21.69 29.01v-5.19q-3.21.15-5.4.56-2.19.4-3.51 1.03-1.32.63-1.89 1.47-.57.84-.57 1.83 0 1.95 1.15 2.79 1.16.84 3.02.84 2.28 0 3.94-.82 1.67-.83 3.26-2.51Zm-15.66-16.17-1.32-2.37q5.31-4.86 12.78-4.86 2.7 0 4.83.89 2.13.88 3.6 2.46 1.47 1.57 2.23 3.76.77 2.19.77 4.8v19.44h-3.36q-1.05 0-1.62-.32-.57-.31-.9-1.27l-.66-2.22q-1.17 1.05-2.28 1.85-1.11.79-2.31 1.33t-2.57.83q-1.36.28-3.01.28-1.95 0-3.6-.52-1.65-.53-2.85-1.58-1.2-1.05-1.86-2.61-.66-1.56-.66-3.63 0-1.17.39-2.33.39-1.15 1.28-2.2.88-1.05 2.29-1.98 1.41-.93 3.46-1.62 2.06-.69 4.79-1.12 2.73-.44 6.24-.53v-1.8q0-3.09-1.32-4.58-1.32-1.48-3.81-1.48-1.8 0-2.98.42-1.19.42-2.09.95-.9.52-1.64.94-.73.42-1.63.42-.78 0-1.32-.41-.54-.4-.87-.94Zm53.85-2.85-1.95 2.7q-.33.42-.65.66-.31.24-.91.24-.57 0-1.11-.34-.54-.35-1.29-.78-.75-.44-1.78-.78-1.04-.35-2.57-.35-1.95 0-3.42.71-1.47.7-2.45 2.02-.97 1.32-1.45 3.19-.48 1.88-.48 4.25 0 2.46.52 4.38.53 1.92 1.52 3.23.99 1.3 2.4 1.97 1.41.68 3.18.68 1.77 0 2.86-.44 1.1-.43 1.85-.95.75-.53 1.3-.96.56-.44 1.25-.44.9 0 1.35.69l2.13 2.7q-1.23 1.44-2.67 2.42-1.44.97-2.99 1.56-1.54.58-3.18.82-1.63.24-3.25.24-2.85 0-5.37-1.06-2.52-1.07-4.41-3.11-1.89-2.04-2.98-4.99-1.1-2.96-1.1-6.74 0-3.39.97-6.28.98-2.9 2.87-5.01 1.89-2.12 4.68-3.32 2.79-1.2 6.42-1.2 3.45 0 6.04 1.11 2.6 1.11 4.67 3.18Zm10.77 8.04h13.98q0-1.44-.4-2.71-.41-1.28-1.22-2.24-.81-.96-2.06-1.51-1.24-.56-2.89-.56-3.21 0-5.05 1.83-1.85 1.83-2.36 5.19Zm18.9 4.47h-19.05q.18 2.37.84 4.09.66 1.73 1.74 2.86 1.08 1.12 2.56 1.68 1.49.55 3.29.55t3.1-.42q1.31-.42 2.28-.93.98-.51 1.71-.93.74-.42 1.43-.42.93 0 1.38.69l2.13 2.7q-1.23 1.44-2.76 2.42-1.53.97-3.2 1.56-1.66.58-3.39.82-1.72.24-3.34.24-3.21 0-5.97-1.06-2.76-1.07-4.8-3.15-2.04-2.09-3.21-5.16-1.17-3.08-1.17-7.13 0-3.15 1.02-5.92 1.02-2.78 2.92-4.83 1.91-2.06 4.66-3.26 2.74-1.2 6.19-1.2 2.91 0 5.37.93t4.23 2.72q1.77 1.78 2.77 4.38 1.01 2.59 1.01 5.92 0 1.68-.36 2.27-.36.58-1.38.58Zm31.14-28.92v43.38h-8.1v-43.38h8.1Zm15.93 43.38h-7.41v-30.78h4.53q1.44 0 1.89 1.35l.48 2.28q.81-.9 1.69-1.65.89-.75 1.89-1.29 1.01-.54 2.16-.86 1.16-.31 2.54-.31 2.91 0 4.78 1.58 1.88 1.57 2.81 4.18.72-1.53 1.8-2.63 1.08-1.09 2.37-1.78t2.74-1.02q1.46-.33 2.93-.33 2.55 0 4.53.78 1.98.78 3.33 2.28 1.35 1.5 2.05 3.66.71 2.16.71 4.95v19.59h-7.41v-19.59q0-2.94-1.29-4.43-1.29-1.48-3.78-1.48-1.14 0-2.12.39-.97.39-1.71 1.13-.73.73-1.15 1.84-.42 1.11-.42 2.55v19.59h-7.44v-19.59q0-3.09-1.25-4.5-1.24-1.41-3.64-1.41-1.62 0-3.02.8-1.39.79-2.59 2.17v22.53Zm59.1-7.95v-5.19q-3.21.15-5.4.56-2.19.4-3.51 1.03-1.32.63-1.89 1.47-.57.84-.57 1.83 0 1.95 1.15 2.79 1.16.84 3.02.84 2.28 0 3.94-.82 1.67-.83 3.26-2.51Zm-15.66-16.17-1.32-2.37q5.31-4.86 12.78-4.86 2.7 0 4.83.89 2.13.88 3.6 2.46 1.47 1.57 2.23 3.76.77 2.19.77 4.8v19.44h-3.36q-1.05 0-1.62-.32-.57-.31-.9-1.27l-.66-2.22q-1.17 1.05-2.28 1.85-1.11.79-2.31 1.33t-2.57.83q-1.36.28-3.01.28-1.95 0-3.6-.52-1.65-.53-2.85-1.58-1.2-1.05-1.86-2.61-.66-1.56-.66-3.63 0-1.17.39-2.33.39-1.15 1.27-2.2.89-1.05 2.3-1.98 1.41-.93 3.46-1.62 2.06-.69 4.79-1.12 2.73-.44 6.24-.53v-1.8q0-3.09-1.32-4.58-1.32-1.48-3.81-1.48-1.8 0-2.98.42-1.19.42-2.09.95-.9.52-1.64.94-.73.42-1.63.42-.78 0-1.32-.41-.54-.4-.87-.94Zm41.1 7.98q1.38 0 2.4-.38 1.02-.37 1.69-1.03.68-.66 1.02-1.59.35-.93.35-2.04 0-2.28-1.37-3.61-1.36-1.34-4.09-1.34-2.73 0-4.1 1.34-1.36 1.33-1.36 3.61 0 1.08.35 2.01.34.93 1.01 1.61.68.67 1.72 1.04 1.03.38 2.38.38Zm8.37 17.52q0-.9-.54-1.47t-1.47-.88q-.93-.32-2.18-.47-1.24-.15-2.64-.23-1.39-.07-2.87-.13-1.49-.06-2.9-.24-1.23.69-1.99 1.62-.77.93-.77 2.16 0 .81.41 1.51.4.71 1.28 1.22.89.51 2.3.79 1.41.29 3.45.29 2.07 0 3.57-.32 1.5-.31 2.48-.86.97-.56 1.42-1.33.45-.76.45-1.66Zm-1.47-31.11h8.85v2.76q0 1.32-1.59 1.62l-2.76.51q.63 1.59.63 3.48 0 2.28-.92 4.13-.91 1.84-2.53 3.13-1.62 1.29-3.82 1.99-2.21.71-4.76.71-.9 0-1.74-.09t-1.65-.24q-1.44.87-1.44 1.95 0 .93.86 1.37.85.43 2.26.61 1.41.18 3.21.23 1.8.04 3.69.19t3.69.53q1.8.37 3.21 1.18 1.41.81 2.27 2.21.85 1.39.85 3.58 0 2.04-1.01 3.96-1 1.92-2.91 3.42-1.9 1.5-4.68 2.41-2.77.92-6.31.92-3.48 0-6.06-.68-2.58-.67-4.29-1.79-1.71-1.13-2.55-2.6-.84-1.47-.84-3.06 0-2.16 1.31-3.61 1.3-1.46 3.58-2.33-1.23-.63-1.95-1.68-.72-1.05-.72-2.76 0-.69.25-1.43.26-.73.75-1.45.5-.72 1.25-1.36.75-.65 1.77-1.16-2.34-1.26-3.68-3.36-1.33-2.1-1.33-4.92 0-2.28.91-4.12.92-1.85 2.56-3.15 1.63-1.31 3.86-2 2.24-.69 4.88-.69 1.98 0 3.72.41 1.74.4 3.18 1.18Zm19.38 10.8h13.98q0-1.44-.4-2.71-.41-1.28-1.22-2.24-.81-.96-2.06-1.51-1.24-.56-2.89-.56-3.21 0-5.05 1.83-1.85 1.83-2.36 5.19Zm18.9 4.47h-19.05q.18 2.37.84 4.09.66 1.73 1.74 2.86 1.08 1.12 2.56 1.68 1.49.55 3.29.55t3.11-.42q1.3-.42 2.28-.93.97-.51 1.7-.93.74-.42 1.43-.42.93 0 1.38.69l2.13 2.7q-1.23 1.44-2.76 2.42-1.53.97-3.19 1.56-1.67.58-3.4.82-1.72.24-3.34.24-3.21 0-5.97-1.06-2.76-1.07-4.8-3.15-2.04-2.09-3.21-5.16-1.17-3.08-1.17-7.13 0-3.15 1.02-5.92 1.02-2.78 2.92-4.83 1.91-2.06 4.65-3.26 2.75-1.2 6.2-1.2 2.91 0 5.37.93t4.23 2.72q1.77 1.78 2.78 4.38 1 2.59 1 5.92 0 1.68-.36 2.27-.36.58-1.38.58Zm-253.8 49.8-1.53 9.03q1.44-.3 2.76-.43 1.32-.14 2.55-.14 3.42 0 6.03 1.02 2.61 1.02 4.38 2.82 1.77 1.8 2.67 4.22.9 2.41.9 5.2 0 3.45-1.22 6.3-1.21 2.85-3.37 4.87-2.16 2.03-5.12 3.14-2.95 1.11-6.43 1.11-2.04 0-3.87-.42t-3.43-1.12q-1.61-.71-2.97-1.63-1.37-.91-2.45-1.93l2.28-3.15q.72-1.02 1.89-1.02.75 0 1.53.48t1.78 1.05q1.01.57 2.38 1.05 1.36.48 3.28.48 2.04 0 3.6-.66t2.59-1.84q1.04-1.19 1.56-2.82.53-1.64.53-3.56 0-3.54-2.06-5.53-2.05-2-6.07-2-3.09 0-6.33 1.14l-4.62-1.32 3.6-21.06h21.42v3.15q0 1.59-.99 2.58t-3.36.99h-11.91Zm54.39 14.97q0 5.67-1.22 9.85-1.21 4.19-3.36 6.92-2.14 2.73-5.07 4.06-2.92 1.34-6.31 1.34-3.39 0-6.29-1.34-2.89-1.33-5.02-4.06-2.13-2.73-3.33-6.92-1.2-4.18-1.2-9.85 0-5.7 1.2-9.87 1.2-4.17 3.33-6.9 2.13-2.73 5.02-4.06 2.9-1.34 6.29-1.34t6.31 1.34q2.93 1.33 5.07 4.06 2.15 2.73 3.36 6.9 1.22 4.17 1.22 9.87Zm-7.65 0q0-4.71-.69-7.8t-1.85-4.92q-1.15-1.83-2.65-2.57-1.5-.73-3.12-.73-1.59 0-3.08.73-1.48.74-2.62 2.57-1.14 1.83-1.82 4.92-.67 3.09-.67 7.8t.67 7.8q.68 3.09 1.82 4.92 1.14 1.83 2.62 2.56 1.49.74 3.08.74 1.62 0 3.12-.74 1.5-.73 2.65-2.56 1.16-1.83 1.85-4.92.69-3.09.69-7.8Zm42.45 0q0 5.67-1.22 9.85-1.21 4.19-3.36 6.92-2.14 2.73-5.07 4.06-2.92 1.34-6.31 1.34-3.39 0-6.29-1.34-2.89-1.33-5.02-4.06-2.13-2.73-3.33-6.92-1.2-4.18-1.2-9.85 0-5.7 1.2-9.87 1.2-4.17 3.33-6.9 2.13-2.73 5.02-4.06 2.9-1.34 6.29-1.34t6.31 1.34q2.93 1.33 5.07 4.06 2.15 2.73 3.36 6.9 1.22 4.17 1.22 9.87Zm-7.65 0q0-4.71-.69-7.8t-1.85-4.92q-1.15-1.83-2.65-2.57-1.5-.73-3.12-.73-1.59 0-3.08.73-1.48.74-2.62 2.57-1.14 1.83-1.82 4.92-.67 3.09-.67 7.8t.67 7.8q.68 3.09 1.82 4.92 1.14 1.83 2.62 2.56 1.49.74 3.08.74 1.62 0 3.12-.74 1.5-.73 2.65-2.56 1.16-1.83 1.85-4.92.69-3.09.69-7.8Zm29.76 5.49 10.53 16.2h-7.14q-.81 0-1.31-.42-.49-.42-.82-.96l-6.51-10.71q-.15.51-.35.96-.19.45-.43.84l-5.76 8.91q-.33.51-.81.94-.48.44-1.2.44h-6.63l10.56-15.87-10.14-14.91h7.14q.81 0 1.2.23.39.22.69.73l6.45 10.26q.33-1.02.93-2.01l5.19-8.1q.66-1.11 1.71-1.11h6.81l-10.11 14.58Zm24.42-20.46-1.53 9.03q1.44-.3 2.76-.43 1.32-.14 2.55-.14 3.42 0 6.03 1.02 2.61 1.02 4.38 2.82 1.77 1.8 2.67 4.22.9 2.41.9 5.2 0 3.45-1.22 6.3-1.21 2.85-3.37 4.87-2.16 2.03-5.12 3.14-2.95 1.11-6.43 1.11-2.04 0-3.87-.42t-3.44-1.12q-1.6-.71-2.97-1.63-1.36-.91-2.44-1.93l2.28-3.15q.72-1.02 1.89-1.02.75 0 1.53.48t1.78 1.05q1.01.57 2.37 1.05 1.37.48 3.29.48 2.04 0 3.6-.66t2.59-1.84q1.04-1.19 1.56-2.82.53-1.64.53-3.56 0-3.54-2.06-5.53-2.05-2-6.07-2-3.09 0-6.33 1.14l-4.62-1.32 3.6-21.06h21.42v3.15q0 1.59-.99 2.58t-3.36.99H277.9Zm54.39 14.97q0 5.67-1.22 9.85-1.21 4.19-3.36 6.92-2.14 2.73-5.07 4.06-2.92 1.34-6.31 1.34-3.39 0-6.29-1.34-2.89-1.33-5.02-4.06-2.13-2.73-3.33-6.92-1.2-4.18-1.2-9.85 0-5.7 1.2-9.87 1.2-4.17 3.33-6.9 2.13-2.73 5.02-4.06 2.9-1.34 6.29-1.34t6.31 1.34q2.93 1.33 5.07 4.06 2.15 2.73 3.36 6.9 1.22 4.17 1.22 9.87Zm-7.65 0q0-4.71-.69-7.8t-1.85-4.92q-1.15-1.83-2.65-2.57-1.5-.73-3.12-.73-1.59 0-3.08.73-1.48.74-2.62 2.57-1.14 1.83-1.82 4.92-.67 3.09-.67 7.8t.67 7.8q.68 3.09 1.82 4.92 1.14 1.83 2.62 2.56 1.49.74 3.08.74 1.62 0 3.12-.74 1.5-.73 2.65-2.56 1.16-1.83 1.85-4.92.69-3.09.69-7.8Zm42.45 0q0 5.67-1.22 9.85-1.21 4.19-3.36 6.92-2.14 2.73-5.07 4.06-2.92 1.34-6.31 1.34-3.39 0-6.29-1.34-2.89-1.33-5.02-4.06-2.13-2.73-3.33-6.92-1.2-4.18-1.2-9.85 0-5.7 1.2-9.87 1.2-4.17 3.33-6.9 2.13-2.73 5.02-4.06 2.9-1.34 6.29-1.34t6.31 1.34q2.93 1.33 5.07 4.06 2.15 2.73 3.36 6.9 1.22 4.17 1.22 9.87Zm-7.65 0q0-4.71-.69-7.8t-1.85-4.92q-1.15-1.83-2.65-2.57-1.5-.73-3.12-.73-1.59 0-3.08.73-1.48.74-2.62 2.57-1.14 1.83-1.82 4.92-.67 3.09-.67 7.8t.67 7.8q.68 3.09 1.82 4.92 1.14 1.83 2.62 2.56 1.49.74 3.08.74 1.62 0 3.12-.74 1.5-.73 2.65-2.56 1.16-1.83 1.85-4.92.69-3.09.69-7.8Z"/></svg>