<svg xmlns="http://www.w3.org/2000/svg" width="250" height="250" viewBox="0 0 250 250"><rect width="100%" height="100%" fill="#DDDDDD"/><path fill="#999999" d="M66.82 100.11h-9.31v6.2h7.86v3.12h-7.86v8.54H53.6V97h13.22v3.11Zm10.49 14.02v-2.51q-1.55.07-2.61.27-1.06.19-1.7.5-.64.3-.91.71-.28.4-.28.88 0 .94.56 1.35.56.41 1.46.41 1.1 0 1.9-.4.81-.4 1.58-1.21Zm-7.57-7.82-.64-1.14q2.57-2.35 6.18-2.35 1.3 0 2.33.43 1.03.42 1.74 1.18.71.77 1.08 1.82.37 1.06.37 2.32v9.4h-1.62q-.51 0-.79-.15-.27-.15-.43-.62l-.32-1.07q-.57.51-1.1.89-.54.38-1.12.65-.58.26-1.24.39-.66.14-1.46.14-.94 0-1.74-.25-.79-.26-1.37-.76-.58-.51-.9-1.26-.32-.76-.32-1.76 0-.56.19-1.12t.61-1.07q.43-.51 1.11-.96.68-.45 1.68-.78.99-.33 2.31-.54 1.32-.21 3.02-.26v-.87q0-1.49-.64-2.21t-1.84-.72q-.87 0-1.45.21-.57.2-1 .45-.44.26-.79.46-.36.2-.79.2-.38 0-.64-.19-.26-.2-.42-.46Zm26.02-1.38-.94 1.31q-.16.2-.31.32-.15.11-.44.11-.28 0-.54-.16-.26-.17-.62-.38t-.86-.38q-.5-.16-1.24-.16-.95 0-1.66.34t-1.18.98q-.47.63-.7 1.54-.23.91-.23 2.05 0 1.19.25 2.12.25.93.73 1.56t1.16.96q.68.32 1.54.32.85 0 1.38-.21.53-.21.9-.46.36-.26.63-.47.26-.21.6-.21.43 0 .65.34l1.03 1.3q-.59.7-1.29 1.17-.7.47-1.44.75-.75.29-1.54.4-.79.12-1.57.12-1.38 0-2.6-.52-1.22-.51-2.13-1.5-.91-.98-1.44-2.41-.53-1.43-.53-3.26 0-1.64.47-3.04.47-1.39 1.38-2.42.92-1.02 2.27-1.6 1.34-.58 3.1-.58 1.67 0 2.92.54 1.25.53 2.25 1.53Zm5.21 3.89h6.76q0-.7-.2-1.31-.19-.62-.59-1.08-.39-.47-.99-.73-.6-.27-1.4-.27-1.55 0-2.44.88-.89.89-1.14 2.51Zm9.14 2.16h-9.21q.09 1.15.4 1.98.32.83.85 1.38.52.54 1.23.81.72.27 1.59.27.87 0 1.5-.21.63-.2 1.11-.44.47-.25.82-.45.36-.21.69-.21.45 0 .67.34l1.03 1.3q-.6.7-1.34 1.17-.74.47-1.54.75-.81.29-1.64.4-.83.12-1.62.12-1.55 0-2.88-.52-1.34-.51-2.32-1.52-.99-1.01-1.55-2.49-.57-1.49-.57-3.45 0-1.52.49-2.86.5-1.34 1.42-2.34.92-.99 2.25-1.57 1.32-.58 2.99-.58 1.41 0 2.6.45 1.18.45 2.04 1.31.85.87 1.34 2.12.49 1.25.49 2.86 0 .82-.18 1.1-.17.28-.66.28ZM125.16 97v20.97h-3.92V97h3.92Zm7.7 20.97h-3.59v-14.88h2.19q.7 0 .92.66l.23 1.1q.39-.44.82-.8.43-.36.91-.62.49-.26 1.05-.42.55-.15 1.22-.15 1.41 0 2.31.76.91.76 1.36 2.02.35-.73.87-1.26t1.15-.87q.62-.33 1.32-.49.71-.16 1.42-.16 1.23 0 2.19.38.95.37 1.6 1.1.66.72 1 1.77.34 1.04.34 2.39v9.47h-3.58v-9.47q0-1.42-.63-2.14-.62-.72-1.82-.72-.55 0-1.03.19-.47.19-.82.55-.36.35-.56.89-.2.54-.2 1.23v9.47h-3.6v-9.47q0-1.49-.6-2.17-.6-.69-1.76-.69-.79 0-1.46.39-.67.38-1.25 1.05v10.89Zm28.56-3.84v-2.51q-1.55.07-2.61.27-1.06.19-1.7.5-.63.3-.91.71-.27.4-.27.88 0 .94.55 1.35.56.41 1.46.41 1.1 0 1.91-.4.8-.4 1.57-1.21Zm-7.57-7.82-.64-1.14q2.57-2.35 6.18-2.35 1.31 0 2.34.43 1.03.42 1.74 1.18.71.77 1.08 1.82.37 1.06.37 2.32v9.4h-1.63q-.51 0-.78-.15-.28-.15-.44-.62l-.32-1.07q-.56.51-1.1.89-.53.38-1.11.65-.58.26-1.24.39-.66.14-1.46.14-.94 0-1.74-.25-.8-.26-1.38-.76-.58-.51-.9-1.26-.32-.76-.32-1.76 0-.56.19-1.12t.62-1.07q.43-.51 1.11-.96.68-.45 1.67-.78 1-.33 2.32-.54 1.31-.21 3.01-.26v-.87q0-1.49-.64-2.21-.63-.72-1.84-.72-.87 0-1.44.21-.57.2-1.01.45-.43.26-.79.46-.35.2-.79.2-.38 0-.64-.19-.26-.2-.42-.46Zm19.87 3.86q.66 0 1.16-.18.49-.18.82-.5.32-.32.49-.77.17-.45.17-.99 0-1.1-.66-1.74-.66-.65-1.98-.65-1.32 0-1.98.65-.66.64-.66 1.74 0 .53.16.97.17.45.5.78.32.33.82.51.5.18 1.16.18Zm4.04 8.47q0-.44-.26-.71-.26-.28-.71-.43-.45-.15-1.05-.23-.6-.07-1.28-.1-.67-.04-1.39-.07-.72-.03-1.4-.12-.59.34-.96.79t-.37 1.04q0 .39.19.73.2.34.63.59.43.25 1.11.38.68.14 1.66.14 1.01 0 1.73-.15.73-.15 1.2-.42t.69-.64q.21-.37.21-.8Zm-.71-15.04h4.28v1.33q0 .64-.77.79l-1.33.24q.3.77.3 1.69 0 1.1-.44 1.99-.44.89-1.23 1.51-.78.63-1.84.97-1.07.34-2.3.34-.44 0-.84-.04-.41-.05-.8-.12-.7.42-.7.94 0 .45.42.66.41.21 1.09.3.68.09 1.55.11.87.02 1.79.09.91.08 1.78.26t1.55.57q.68.39 1.1 1.07.41.67.41 1.73 0 .98-.49 1.91-.48.93-1.4 1.66-.92.72-2.27 1.16-1.34.44-3.05.44-1.68 0-2.93-.32-1.24-.33-2.07-.87-.83-.55-1.23-1.26-.41-.71-.41-1.47 0-1.05.63-1.75.63-.71 1.73-1.13-.59-.3-.94-.81t-.35-1.33q0-.34.13-.69.12-.36.36-.7.24-.35.6-.66.36-.32.86-.56-1.13-.61-1.78-1.63-.64-1.01-.64-2.37 0-1.11.44-2 .44-.89 1.23-1.52t1.87-.96q1.08-.34 2.36-.34.95 0 1.8.2.84.19 1.53.57Zm9.37 5.22h6.76q0-.7-.2-1.31-.2-.62-.59-1.08-.39-.47-.99-.73-.6-.27-1.4-.27-1.55 0-2.44.88-.89.89-1.14 2.51Zm9.13 2.16h-9.2q.08 1.15.4 1.98.32.83.84 1.38.53.54 1.24.81.72.27 1.59.27.87 0 1.5-.21.63-.2 1.1-.44.48-.25.83-.45.36-.21.69-.21.45 0 .67.34l1.03 1.3q-.6.7-1.34 1.17-.74.47-1.54.75-.81.29-1.64.4-.83.12-1.62.12-1.55 0-2.88-.52-1.34-.51-2.32-1.52-.99-1.01-1.55-2.49-.57-1.49-.57-3.45 0-1.52.49-2.86.5-1.34 1.42-2.34.92-.99 2.24-1.57 1.33-.58 3-.58 1.4 0 2.59.45t2.05 1.31q.85.87 1.34 2.12.49 1.25.49 2.86 0 .82-.18 1.1-.17.28-.67.28Zm-113.4 38.46h5.38q.58 0 .92.32.34.33.34.86v2.15H74.41v-1.19q0-.36.15-.76t.48-.72l6.37-6.38q.8-.81 1.43-1.55.63-.74 1.05-1.46.42-.73.64-1.48.23-.74.23-1.57 0-.75-.22-1.33-.22-.57-.61-.96-.4-.39-.96-.59-.56-.19-1.26-.19-.63 0-1.18.18-.54.18-.96.51-.42.32-.71.76-.29.43-.44.95-.24.67-.63.89-.4.22-1.14.1l-1.88-.33q.22-1.51.84-2.65t1.56-1.9q.93-.76 2.14-1.14 1.22-.39 2.61-.39 1.45 0 2.65.43t2.06 1.21q.86.78 1.33 1.88.48 1.11.48 2.46 0 1.16-.34 2.14-.34.99-.91 1.89-.57.9-1.34 1.74-.77.84-1.61 1.71l-4.73 4.83q.68-.21 1.36-.32.67-.1 1.28-.1Zm14.6-14.39-.74 4.37q.7-.15 1.34-.21.63-.07 1.23-.07 1.65 0 2.91.49 1.26.5 2.12 1.37.86.87 1.29 2.03.44 1.17.44 2.52 0 1.67-.59 3.04-.59 1.38-1.63 2.36-1.05.98-2.48 1.52-1.42.53-3.11.53-.98 0-1.87-.2-.88-.2-1.66-.54-.77-.35-1.43-.79-.66-.44-1.18-.93l1.1-1.53q.35-.49.91-.49.36 0 .74.23.38.24.86.51.49.28 1.15.51.66.23 1.59.23.98 0 1.74-.32.75-.32 1.25-.89.5-.57.76-1.36.25-.79.25-1.72 0-1.71-.99-2.68-1-.96-2.94-.96-1.49 0-3.06.55l-2.23-.64 1.74-10.18h10.35v1.53q0 .76-.48 1.24t-1.62.48h-5.76Zm26.29 7.24q0 2.74-.59 4.76-.58 2.02-1.62 3.34-1.04 1.32-2.45 1.97-1.42.64-3.05.64-1.64 0-3.04-.64-1.4-.65-2.43-1.97-1.03-1.32-1.61-3.34-.58-2.02-.58-4.76 0-2.76.58-4.77.58-2.02 1.61-3.34 1.03-1.32 2.43-1.96 1.4-.65 3.04-.65 1.63 0 3.05.65 1.41.64 2.45 1.96 1.04 1.32 1.62 3.34.59 2.01.59 4.77Zm-3.7 0q0-2.28-.33-3.77-.33-1.5-.89-2.38-.56-.89-1.29-1.24-.72-.36-1.5-.36-.77 0-1.49.36-.72.35-1.27 1.24-.55.88-.88 2.38-.32 1.49-.32 3.77 0 2.27.32 3.77.33 1.49.88 2.37.55.89 1.27 1.24.72.36 1.49.36.78 0 1.5-.36.73-.35 1.29-1.24.56-.88.89-2.37.33-1.5.33-3.77Zm14.39 2.65 5.09 7.83h-3.46q-.39 0-.63-.2-.24-.21-.39-.47l-3.15-5.17q-.07.24-.17.46-.09.22-.21.41l-2.78 4.3q-.16.25-.39.46-.24.21-.58.21h-3.21l5.11-7.67-4.91-7.21h3.46q.39 0 .58.11.18.11.33.36l3.12 4.96q.16-.5.45-.98l2.5-3.91q.32-.54.83-.54h3.29l-4.88 7.05Zm14.02 4.5h5.38q.58 0 .92.32.34.33.34.86v2.15H140v-1.19q0-.36.16-.76.15-.4.48-.72l6.37-6.38q.8-.81 1.43-1.55.63-.74 1.05-1.46.42-.73.64-1.48.23-.74.23-1.57 0-.75-.22-1.33-.22-.57-.62-.96-.39-.39-.95-.59-.56-.19-1.26-.19-.64 0-1.18.18-.54.18-.96.51-.42.32-.71.76-.29.43-.44.95-.25.67-.64.89-.39.22-1.13.1l-1.88-.33q.21-1.51.84-2.65.62-1.14 1.56-1.9.93-.76 2.14-1.14 1.21-.39 2.61-.39 1.45 0 2.65.43t2.06 1.21q.85.78 1.33 1.88.48 1.11.48 2.46 0 1.16-.34 2.14-.34.99-.91 1.89-.58.9-1.34 1.74-.77.84-1.61 1.71l-4.73 4.83q.68-.21 1.35-.32.68-.1 1.29-.1Zm14.6-14.39-.74 4.37q.7-.15 1.33-.21.64-.07 1.24-.07 1.65 0 2.91.49 1.26.5 2.12 1.37.85.87 1.29 2.03.43 1.17.43 2.52 0 1.67-.58 3.04-.59 1.38-1.64 2.36-1.04.98-2.47 1.52-1.43.53-3.11.53-.98 0-1.87-.2-.88-.2-1.66-.54-.77-.35-1.43-.79-.66-.44-1.19-.93l1.11-1.53q.34-.49.91-.49.36 0 .74.23.38.24.86.51.49.28 1.15.51.66.23 1.59.23.98 0 1.74-.32.75-.32 1.25-.89.5-.57.75-1.36.26-.79.26-1.72 0-1.71-1-2.68-.99-.96-2.93-.96-1.5 0-3.06.55l-2.24-.64 1.75-10.18h10.35v1.53q0 .76-.48 1.24t-1.62.48h-5.76Zm26.29 7.24q0 2.74-.59 4.76-.59 2.02-1.62 3.34-1.04 1.32-2.45 1.97-1.42.64-3.06.64-1.63 0-3.03-.64-1.4-.65-2.43-1.97-1.03-1.32-1.61-3.34-.58-2.02-.58-4.76 0-2.76.58-4.77.58-2.02 1.61-3.34 1.03-1.32 2.43-1.96 1.4-.65 3.03-.65 1.64 0 3.06.65 1.41.64 2.45 1.96 1.03 1.32 1.62 3.34.59 2.01.59 4.77Zm-3.7 0q0-2.28-.33-3.77-.34-1.5-.9-2.38-.55-.89-1.28-1.24-.72-.36-1.51-.36-.77 0-1.48.36-.72.35-1.27 1.24-.55.88-.88 2.38-.32 1.49-.32 3.77 0 2.27.32 3.77.33 1.49.88 2.37.55.89 1.27 1.24.71.36 1.48.36.79 0 1.51-.36.73-.35 1.28-1.24.56-.88.9-2.37.33-1.5.33-3.77Z"/></svg>